<svg width="185" height="193" viewBox="0 0 185 193" fill="none" xmlns="http://www.w3.org/2000/svg">
<path d="M23.125 71.9915C23.125 63.8016 26.3735 55.9471 32.1559 50.156C37.9383 44.3648 45.7808 41.1115 53.9583 41.1115H131.042C139.219 41.1115 147.062 44.3648 152.844 50.156C158.627 55.9471 161.875 63.8016 161.875 71.9915V118.311C161.875 126.501 158.627 134.356 152.844 140.147C147.062 145.938 139.219 149.191 131.042 149.191H53.9583C45.7808 149.191 37.9383 145.938 32.1559 140.147C26.3735 134.356 23.125 126.501 23.125 118.311V71.9915Z" stroke="white" stroke-width="10" stroke-linecap="round" stroke-linejoin="round"/>
<path d="M77.0833 71.9915L115.625 95.1513L77.0833 118.311V71.9915Z" stroke="white" stroke-width="10" stroke-linecap="round" stroke-linejoin="round"/>
</svg>
