<svg width="184" height="193" viewBox="0 0 184 193" fill="none" xmlns="http://www.w3.org/2000/svg">
<path d="M168.667 33.4687C161 37.2515 153.487 38.7878 145.667 41.1115C137.072 31.3457 124.33 30.8053 112.087 35.4219C99.843 40.0385 91.8237 51.3251 92 64.2715V71.9915C67.1217 72.6323 44.965 61.2221 30.6667 41.1115C30.6667 41.1115 -1.39533 98.4941 61.3333 126.031C46.9813 135.658 32.6677 142.151 15.3333 141.471C40.6947 155.39 68.333 160.177 92.2607 153.183C119.707 145.154 142.263 124.441 150.918 93.4143C153.5 83.9782 154.782 74.2293 154.729 64.4414C154.729 62.5191 166.305 43.0493 168.667 33.4687Z" stroke="white" stroke-width="10" stroke-linecap="round" stroke-linejoin="round"/>
</svg>
